# AST/ASF file generated using VICON BodyLanguage
# -----------------------------------------------
:version 1.10
:name VICON
:units
  mass 1.0
  length 0.45
  angle deg
:documentation
   .ast/.asf automatically generated from VICON data using
   VICON BodyBuilder and BodyLanguage model FoxedUp or BRILLIANT.MOD
:root
   order TX TY TZ RX RY RZ
   axis XYZ
   position 0 0 0  
   orientation 0 0 0 
:bonedata
  begin
     id 1 
     name lhipjoint
     direction 0.611804 -0.747784 0.257906 
     length 2.29243 
     axis 0 0 0  XYZ
  end
  begin
     id 2 
     name lfemur
     direction 0.34202 -0.939693 0  
     length 7.31159  
     axis 0 0 20  XYZ
    dof rx ry rz
    limits (-160.0 20.0)
           (-70.0 70.0)
           (-60.0 70.0)
  end
  begin
     id 3 
     name ltibia
     direction 0.34202 -0.939693 0   
     length 7.33391   
     axis 0 0 20   XYZ
    dof rx
    limits (-10.0 170.0)
  end
  begin
     id 4 
     name lfoot
     direction 0.122263 -0.335914 0.933924   
     length 1.76083   
     axis -90 7.62852e-016 20   XYZ
    dof rx rz
    limits (-45.0 90.0)
           (-70.0 20.0)
  end
  begin
     id 5 
     name ltoes
     direction 1.53533e-011 -4.2177e-011 1   
     length 0.879206   
     axis -90 7.62852e-016 20   XYZ
    dof rx
    limits (-90.0 20.0)
  end
  begin
     id 6 
     name rhipjoint
     direction -0.646469 -0.721248 0.248754   
     length 2.37677  
     axis 0 0 0  XYZ 
  end
  begin
     id 7 
     name rfemur
     direction -0.34202 -0.939693 0   
     length 7.18623   
     axis 0 0 -20   XYZ
    dof rx ry rz
    limits (-160.0 20.0)
           (-70.0 70.0)
           (-70.0 60.0)
  end
  begin
     id 8 
     name rtibia
     direction -0.34202 -0.939693 0   
     length 7.36567   
     axis 0 0 -20   XYZ
    dof rx
    limits (-10.0 170.0)
 end
 begin
     id 9 
     name rfoot
     direction -0.126681 -0.348054 0.928876   
     length 1.71902  
     axis -90 -7.62852e-016 -20   XYZ
    dof rx rz
    limits (-45.0 90.0)
           (-20.0 70.0)
  end
  begin
     id 10 
     name rtoes
     direction -1.53551e-011 -4.21898e-011 1   
     length 0.857792   
     axis -90 -7.62852e-016 -20   XYZ
    dof rx
    limits (-90.0 20.0)
  end
  begin
     id 11 
     name lowerback
     direction 0.0106509 0.999778 0.0181844   
     length 2.07668   
     axis 0 0 0   XYZ
    dof rx ry rz
    limits (-20.0 45.0)
           (-30.0 30.0)
           (-30.0 30.0)
  end
  begin
     id 12 
     name upperback
     direction -0.00456018 0.999989 -0.000590935   
     length 2.08011   
     axis 0 0 0   XYZ
    dof rx ry rz
    limits (-20.0 45.0)
           (-30.0 30.0)
           (-30.0 30.0)
  end
  begin
     id 13 
     name thorax
     direction -0.00910382 0.999916 -0.00923765   
     length 2.07397   
     axis 0 0 0   XYZ
    dof rx ry rz
    limits (-20.0 45.0)
           (-30.0 30.0)
           (-30.0 30.0)
  end
  begin
     id 14 
     name lowerneck
     direction 0.00171967 0.99778 0.0665733   
     length 1.67556   
     axis 0 0 0   XYZ
    dof rx ry rz
    limits (-20.0 45.0)
           (-30.0 30.0)
           (-30.0 30.0)
  end
  begin
     id 15 
     name upperneck
     direction -0.0143166 0.991302 -0.130828   
     length 1.68462   
     axis 0 0 0   XYZ
    dof rx ry rz
    limits (-20.0 45.0)
           (-30.0 30.0)
           (-30.0 30.0)
  end
  begin
     id 16
     name head
     direction -0.00606378 0.998665 -0.0512995  
     length 1.69269  
     axis 0 0 0   XYZ
    dof rx ry rz
    limits (-20.0 45.0)
           (-30.0 30.0)
           (-30.0 30.0)
  end
  begin
     id 17 
     name lclavicle
     direction 0.9638 0.179341 0.197297  
     length 4.12888  
     axis 0 0 0   XYZ
    dof ry rz
    limits (-20.0 10.0)
           (0.0 20.0)
  end
  begin
     id 18 
     name lhumerus
     direction 1 -4.48972e-011 -2.47351e-027   
     length 5.01834   
     axis -180 -30 -90   XYZ
    dof rx ry rz
    limits (-60.0 90.0)
           (-90.0 90.0)
           (-90.0 90.0)
  end
  begin
     id 19
     name lradius
     direction 1 -4.48965e-011 1.51591e-026   
     length 3.4869   
     axis -180 -30 -90   XYZ
    dof rx
    limits (-10.0 170.0)
  end
  begin
     id 20
     name lwrist
     direction 1 -4.48957e-011 2.70032e-026   
     length 1.74345   
     axis -1.81515e-014 90 90   XYZ
    dof ry
    limits (-180.0 0.0)
 end
  begin
     id 21 
     name lhand
     direction 1 -4.48951e-011 5.40064e-026   
     length 0.76799   
     axis -3.44607e-014 90 90   XYZ
    dof rx rz
    limits (-90.0 90.0)
           (-45.0 45.0)
  end
  begin
     id 22 
     name lfingers
     direction 1 -4.48971e-011 1.08013e-025   
     length 0.619174   
     axis -6.89214e-014 90 90   XYZ
    dof rx
    limits (0.0 90.0)
  end
  begin
     id 23
     name lthumb
     direction 0.707107 -6.34931e-011 0.707107   
     length 0.889013   
     axis -90 45 2.85299e-015   XYZ
    dof rx rz
    limits (-45.0 45.0)
           (-45.0 45.0)
  end
  begin
     id 24 
     name rclavicle
     direction -0.961409 0.252588 0.109054   
     length 4.04305  
     axis 0 0 0   XYZ 
    dof ry rz
    limits (-10.0 20.0)
           (-20.0 0.0)
  end
  begin
     id 25 
     name rhumerus
     direction -1 -4.4897e-011 1.33872e-017  
     length 4.70164   
     axis -180 30 90   XYZ
    dof rx ry rz
    limits (-90.0 60.0)
           (-90.0 90.0)
           (-90.0 90.0)
  end
  begin
     id 26 
     name rradius
     direction -1 -4.48954e-011 1.83844e-026   
     length 3.49911   
     axis -180 30 90   XYZ
    dof rx
    limits (-10.0 170.0)
  end
  begin
     id 27 
     name rwrist
     direction -1 -4.49008e-011 2.70032e-026   
     length 1.74955   
     axis -1.81515e-014 -90 -90   XYZ
    dof ry
    limits (-180.0 0.0)
  end
  begin
     id 28
     name rhand
     direction -1 -4.48916e-011 5.40064e-026   
     length 0.739335   
     axis -3.44607e-014 -90 -90   XYZ
    dof rx rz
    limits (-90.0 90.0)
           (-45.0 45.0)
  end
  begin
     id 29
     name rfingers
     direction -1 -4.48987e-011 1.08013e-025   
     length 0.596071   
     axis -6.89214e-014 -90 -90   XYZ
    dof rx
    limits (0.0 90.0)
  end
  begin
     id 30
     name rthumb
     direction -0.707107 -6.34935e-011 0.707107   
     length 0.855843   
     axis -90 -45 -2.85299e-015   XYZ
    dof rx rz
    limits (-45.0 45.0)
           (-45.0 45.0)
  end
:hierarchy
  begin
    root lhipjoint rhipjoint lowerback
    lhipjoint lfemur
    lfemur ltibia
    ltibia lfoot
    lfoot ltoes
    rhipjoint rfemur
    rfemur rtibia
    rtibia rfoot
    rfoot rtoes
    lowerback upperback
    upperback thorax
    thorax lowerneck lclavicle rclavicle
    lowerneck upperneck
    upperneck head
    lclavicle lhumerus
    lhumerus lradius
    lradius lwrist
    lwrist lhand lthumb
    lhand lfingers
    rclavicle rhumerus
    rhumerus rradius
    rradius rwrist
    rwrist rhand rthumb
    rhand rfingers
  end

#!OML:ASF I:\salsa\salsa 7_09\Patient 1\Session 1\dancermale.ASF
:FULLY-SPECIFIED
:DEGREES
936
root 7.96415 16.9457 6.78497 190.347 -50.1041 -179.889
lowerback -0.89355 -3.8391 0.587874
upperback -0.741487 -5.1288 0.021229
thorax -0.309542 -2.56973 -0.334654
lowerneck -9.05212 9.84262 5.52336
upperneck 19.1937 13.8759 -8.5914
head 8.45583 5.98282 -2.31579
rclavicle 1.01927e-013 -2.40529e-014
rhumerus -36.1392 23.1192 -105.056
rradius 101.869
rwrist 23.1853
rhand -47.318 -1.08278
rfingers 7.12502
rthumb -20.013 -30.0722
lclavicle 1.01927e-013 -2.40529e-014
lhumerus -2.97755 -5.10176 83.9983
lradius 71.4803
lwrist 74.5833
lhand -19.5586 47.0233
lfingers 7.12502
lthumb 6.76595 436.895
rfemur -12.2181 -5.07297 7.34325
rtibia 36.0261
rfoot -17.2345 -20.0916
rtoes -3.29699
lfemur -30.772 7.2553 -13.2704
ltibia 31.4422
lfoot -13.6686 7.51117
ltoes -9.5006
937
root 8.04867 16.9256 6.74369 190.571 -51.7944 -179.541
lowerback -1.20634 -4.00437 0.804988
upperback -0.909923 -5.35555 0.0955712
thorax -0.322547 -2.68575 -0.395723
lowerneck -9.20144 9.715 5.57594
upperneck 18.9828 13.6736 -8.49336
head 8.39204 5.9143 -2.31
rclavicle 1.2921e-014 -1.23246e-014
rhumerus -35.0409 24.7584 -106.6
rradius 100.103
rwrist 24.5397
rhand -47.8673 -2.80734
rfingers 7.12502
rthumb -20.5409 -31.7406
lclavicle 1.2921e-014 -1.23246e-014
lhumerus -0.519495 -3.83485 82.9275
lradius 68.7162
lwrist 75.045
lhand -18.7355 47.7297
lfingers 7.12502
lthumb 7.5605 437.575
rfemur -12.0704 -5.34983 7.9546
rtibia 35.7439
rfoot -17.4256 -20.221
rtoes -8.9388
lfemur -32.1552 6.66097 -12.8147
ltibia 32.006
lfoot -13.6094 6.71588
ltoes -10.233
938
root 8.13877 16.9057 6.69586 190.276 -53.2837 -178.843
lowerback -1.21443 -4.05346 1.04452
upperback -1.04979 -5.42418 0.256384
thorax -0.468866 -2.72281 -0.358251
lowerneck -9.31317 9.52961 5.41137
upperneck 18.7721 13.3866 -8.19472
head 8.28458 5.8104 -2.21804
rclavicle 8.45332e-014 1.66979e-014
rhumerus -33.9987 26.292 -108.026
rradius 98.4377
rwrist 25.5074
rhand -48.2387 -3.99834
rfingers 7.12502
rthumb -20.8978 -32.8927
lclavicle 8.45332e-014 1.66979e-014
lhumerus 1.81777 -2.62071 82.0474
lradius 66.095
lwrist 75.1752
lhand -17.9752 48.3074
lfingers 7.12502
lthumb 8.29432 438.125
rfemur -11.6959 -5.56949 8.88537
rtibia 35.3481
rfoot -18.1509 -20.0924
rtoes -12.3242
lfemur -33.2137 6.17633 -12.1149
ltibia 32.5297
lfoot -13.4274 6.25029
ltoes -12.026
939
root 8.24489 16.8912 6.62202 189.592 -53.8199 -177.888
lowerback -1.17334 -3.74671 0.720014
upperback -1.00738 -5.01159 0.567823
thorax -0.386753 -2.51312 0.139423
lowerneck -9.56638 9.24115 5.19358
upperneck 18.3975 12.9837 -8.01155
head 8.14608 5.64176 -2.16395
rclavicle 2.48978e-014 1.59028e-015
rhumerus -32.5111 27.8651 -109.057
rradius 96.9045
rwrist 25.9909
rhand -49.0897 -4.61454
rfingers 7.12502
rthumb -21.7151 -33.4166
lclavicle 2.48978e-014 1.59028e-015
lhumerus 4.38107 -1.22551 81.4266
lradius 63.4606
lwrist 75.1084
lhand -17.831 48.3959
lfingers 7.12502
lthumb 8.43345 438.207
rfemur -11.4514 -5.22255 10.0863
rtibia 34.9804
rfoot -19.0458 -19.6976
rtoes -13.7894
lfemur -33.7002 6.55096 -11.1634
ltibia 32.8323
lfoot -13.1401 6.03801
ltoes -14.418
940
root 8.34399 16.8691 6.55995 189.225 -54.7224 -177.095
lowerback -1.44468 -3.52519 0.664698
upperback -0.919177 -4.71977 0.740806
thorax -0.124853 -2.36605 0.32522
lowerneck -10.1021 8.98697 5.20769
upperneck 18.1666 12.6247 -7.97104
head 8.13738 5.483 -2.17266
rclavicle -1.86858e-014 7.55382e-015
rhumerus -30.5222 29.2699 -109.849
rradius 95.4571
rwrist 25.9171
rhand -50.159 -5.64362
rfingers 7.12502
rthumb -22.7417 -34.3233
lclavicle -1.86858e-014 7.55382e-015
lhumerus 7.18922 0.190283 80.7822
lradius 60.829
lwrist 75.2133
lhand -18.0942 47.8046
lfingers 7.12502
lthumb 8.1794 437.626
rfemur -11.4497 -5.72937 11.1584
rtibia 34.6803
rfoot -19.89 -19.9402
rtoes -15.6643
lfemur -34.7512 6.46349 -10.3419
ltibia 33.4833
lfoot -12.977 5.70622
ltoes -15.1593
941
root 8.43925 16.8395 6.48728 188.629 -55.2501 -176.159
lowerback -1.632 -3.18286 0.666385
upperback -0.873876 -4.26677 0.828446
thorax 0.0324151 -2.13932 0.405709
lowerneck -10.5215 8.77973 5.21366
upperneck 18.0719 12.2885 -7.6858
head 8.13747 5.35436 -2.10276
rclavicle 3.04638e-014 -2.22639e-014
rhumerus -28.5236 30.0812 -110.758
rradius 93.8995
rwrist 25.6015
rhand -51.0731 -7.42906
rfingers 7.12502
rthumb -23.6187 -35.9984
lclavicle 3.04638e-014 -2.22639e-014
lhumerus 9.80119 1.61199 80.0811
lradius 58.417
lwrist 75.1895
lhand -17.9675 47.3637
lfingers 7.12502
lthumb 8.3017 437.181
rfemur -11.4987 -6.45319 12.2621
rtibia 34.4924
rfoot -20.6921 -20.4927
rtoes -18.7777
lfemur -35.5965 7.01509 -9.43211
ltibia 34.1599
lfoot -12.9752 5.02535
ltoes -14.0975
942
root 8.52115 16.8056 6.43976 188.118 -56.4806 -175.407
lowerback -1.54472 -3.04324 0.96431
upperback -0.9892 -4.08412 0.857312
thorax -0.153571 -2.05045 0.282565
lowerneck -10.7144 8.52135 5.2149
upperneck 17.9798 11.8746 -7.36634
head 8.09078 5.19568 -2.0407
rclavicle -2.18663e-014 3.57812e-015
rhumerus -26.5636 30.4951 -111.51
rradius 92.2091
rwrist 25.0612
rhand -52.0621 -9.11862
rfingers 7.12502
rthumb -24.567 -37.5624
lclavicle -2.18663e-014 3.57812e-015
lhumerus 12.0916 2.80498 79.5014
lradius 56.1656
lwrist 74.814
lhand -17.8552 46.7775
lfingers 7.12502
lthumb 8.4101 436.59
rfemur -11.4133 -8.26798 13.0885
rtibia 34.3846
rfoot -21.4597 -20.822
rtoes -20.9447
lfemur -36.7567 7.03709 -8.83893
ltibia 35.0347
lfoot -12.9732 4.04696
ltoes -12.4855
943
root 8.59721 16.7691 6.3868 187.61 -57.6819 -174.791
lowerback -1.3145 -2.90148 0.932341
upperback -1.1255 -3.89215 1.03054
thorax -0.407293 -1.95586 0.497123
lowerneck -10.9011 8.27272 5.2072
upperneck 17.8798 11.5295 -7.33861
head 8.06487 5.03864 -2.06469
rclavicle 6.89286e-014 -5.1684e-015
rhumerus -24.4027 30.9599 -111.682
rradius 90.3466
rwrist 24.3844
rhand -52.5329 -8.92243
rfingers 7.12502
rthumb -25.0183 -37.3041
lclavicle 6.89286e-014 -5.1684e-015
lhumerus 14.1855 3.78599 79.1565
lradius 54.0133
lwrist 73.9724
lhand -17.4901 46.4715
lfingers 7.12502
lthumb 8.76239 436.27
rfemur -11.2002 -9.87624 13.8279
rtibia 34.2676
rfoot -22.1407 -21.2554
rtoes -21.8883
lfemur -37.7156 7.12964 -8.39161
ltibia 35.7878
lfoot -12.9961 3.14705
ltoes -11.1537
944
root 8.66769 16.7243 6.33041 187.097 -58.5622 -174.043
lowerback -1.37829 -2.74824 1.00039
upperback -1.21719 -3.6915 1.19281
thorax -0.459455 -1.85716 0.626179
lowerneck -11.0749 8.11187 5.08568
upperneck 17.7447 11.3097 -7.23808
head 8.0224 4.94115 -2.03288
rclavicle -3.77691e-014 6.36111e-015
rhumerus -22.0593 31.6218 -111.787
rradius 88.4249
rwrist 23.9808
rhand -53.0537 -10.116
rfingers 7.12502
rthumb -25.5172 -38.4273
lclavicle -3.77691e-014 6.36111e-015
lhumerus 16.241 4.96681 78.7341
lradius 52.0162
lwrist 72.7459
lhand -16.5665 46.8127
lfingers 7.12502
lthumb 9.65362 436.572
rfemur -11.2839 -11.1049 14.6424
rtibia 34.3931
rfoot -22.7632 -21.6217
rtoes -22.8427
lfemur -38.693 7.55867 -7.91109
ltibia 36.5379
lfoot -13.1177 2.42714
ltoes -9.79786
945
root 8.73119 16.6739 6.27701 186.731 -59.5284 -173.4
lowerback -1.68853 -2.60473 1.19169
upperback -1.2235 -3.50957 1.19756
thorax -0.304193 -1.76766 0.510688
lowerneck -11.2661 7.90598 5.1091
upperneck 17.5076 10.9931 -7.10754
head 7.94988 4.81534 -2.02531
rclavicle -8.27441e-014 -1.19271e-015
rhumerus -19.351 32.0142 -111.727
rradius 86.3677
rwrist 23.6886
rhand -53.4073 -11.1166
rfingers 7.12502
rthumb -25.8559 -39.3789
lclavicle -8.27441e-014 -1.19271e-015
lhumerus 18.3712 5.97178 78.1703
lradius 50.2384
lwrist 71.6316
lhand -16.625 46.6693
lfingers 7.12502
lthumb 9.59717 436.431
rfemur -11.4963 -12.2822 15.3454
rtibia 34.7084
rfoot -23.44 -21.7746
rtoes -23.5537
lfemur -39.8353 7.98454 -7.59721
ltibia 37.4132
lfoot -13.2536 1.60457
ltoes -8.36603
946
root 8.78752 16.6193 6.22613 186.757 -60.5718 -173.105
lowerback -1.97385 -2.42708 0.911809
upperback -1.33759 -3.27674 1.36529
thorax -0.236001 -1.65093 0.830217
lowerneck -11.5432 7.64764 5.00496
upperneck 17.4384 10.6509 -7.07773
head 7.94609 4.64929 -2.02973
rclavicle -8.29926e-014 1.59028e-015
rhumerus -16.607 32.5262 -111.261
rradius 84.0481
rwrist 22.6186
rhand -54.283 -11.3889
rfingers 7.12502
rthumb -26.6942 -39.5262
lclavicle -8.29926e-014 1.59028e-015
lhumerus 20.266 6.71798 77.9793
lradius 48.7356
lwrist 70.4231
lhand -17.282 46.4934
lfingers 7.12502
lthumb 8.96324 436.283
rfemur -11.8854 -13.287 15.8529
rtibia 35.1792
rfoot -24.149 -21.9522
rtoes -24.0768
lfemur -41.2201 8.41297 -7.63304
ltibia 38.5206
lfoot -13.4715 0.757766
ltoes -8.47475
947
root 8.82804 16.5671 6.17137 186.31 -61.4759 -172.546
lowerback -2.09477 -2.22836 0.790629
upperback -1.43704 -3.01447 1.51831
thorax -0.257832 -1.52029 1.05599
lowerneck -11.6754 7.38937 4.82243
upperneck 17.4105 10.2969 -6.89524
head 7.91675 4.48802 -1.97848
rclavicle 3.23025e-015 -1.31198e-014
rhumerus -13.9472 32.84 -110.856
rradius 81.6017
rwrist 21.6899
rhand -54.9768 -11.9788
rfingers 7.12502
rthumb -27.358 -40.0132
lclavicle 3.23025e-015 -1.31198e-014
lhumerus 21.661 7.11679 77.546
lradius 47.7157
lwrist 69.0449
lhand -17.7007 46.7924
lfingers 7.12502
lthumb 8.55916 436.599
rfemur -11.9851 -13.9099 16.4748
rtibia 35.6348
rfoot -24.8551 -22.1502
rtoes -24.1496
lfemur -42.2809 8.98815 -7.56654
ltibia 39.7285
lfoot -13.804 -0.0735201
ltoes -8.76847
948
root 8.83654 16.5224 6.11332 184.802 -62.2667 -171.385
lowerback -1.8192 -1.98294 1.00489
upperback -1.45729 -2.68754 1.7072
thorax -0.437678 -1.35888 1.14716
lowerneck -11.8578 7.09266 4.53311
upperneck 17.6902 9.87246 -6.4621
head 7.97604 4.29836 -1.83302
rclavicle 7.23825e-014 8.34896e-015
rhumerus -11.8003 32.7275 -110.422
rradius 79.4251
rwrist 21.0467
rhand -55.0761 -12.4546
rfingers 7.12502
rthumb -27.4529 -40.474
lclavicle 7.23825e-014 8.34896e-015
lhumerus 22.5058 7.11211 77.012
lradius 47.2958
lwrist 67.8331
lhand -18.3986 47.0055
lfingers 7.12502
lthumb 7.88567 436.838
rfemur -11.3253 -14.2127 17.2217
rtibia 35.8851
rfoot -25.4931 -22.4744
rtoes -23.9689
lfemur -42.54 9.52737 -7.13685
ltibia 40.7826
lfoot -14.1951 -0.881575
ltoes -6.95726
949
root 8.80607 16.4821 6.06311 183.224 -63.1611 -170.403
lowerback -1.55928 -1.73928 1.32838
upperback -1.38515 -2.36237 1.81633
thorax -0.521846 -1.19858 1.09034
lowerneck -12.1059 6.7266 4.32505
upperneck 18.0099 9.34558 -6.07498
head 8.06461 4.05989 -1.7248
rclavicle 4.10987e-014 -2.70347e-014
rhumerus -9.98093 32.2797 -109.849
rradius 77.455
rwrist 20.3753
rhand -54.7952 -11.4891
rfingers 7.12502
rthumb -27.1843 -39.5508
lclavicle 4.10987e-014 -2.70347e-014
lhumerus 23.3153 7.0829 76.8175
lradius 47.1718
lwrist 66.6774
lhand -18.8565 47.6596
lfingers 7.12502
lthumb 7.44366 437.509
rfemur -10.2427 -14.5339 17.6265
rtibia 35.9718
rfoot -26.0195 -23.0624
rtoes -24.3571
lfemur -42.4267 9.67814 -6.87563
ltibia 41.7187
lfoot -14.7775 -1.49191
ltoes -5.37029
950
root 8.75658 16.4358 6.0266 182.231 -64.1586 -169.827
lowerback -1.64449 -1.5023 1.53881
upperback -1.30375 -2.05378 1.89221
thorax -0.398211 -1.04545 1.04961
lowerneck -12.5101 6.28432 4.19964
upperneck 18.3516 8.73076 -5.86923
head 8.20041 3.7656 -1.69533
rclavicle 1.56543e-014 1.59028e-015
rhumerus -8.2236 31.7278 -109.117
rradius 75.5821
rwrist 19.3403
rhand -55.6015 -11.9792
rfingers 7.12502
rthumb -27.9553 -39.9178
lclavicle 1.56543e-014 1.59028e-015
lhumerus 23.9778 6.85622 76.5932
lradius 47.523
lwrist 65.8447
lhand -18.5653 49.3526
lfingers 7.12502
lthumb 7.72474 439.192
rfemur -9.33917 -14.8466 17.7882
rtibia 35.987
rfoot -26.4682 -23.7634
rtoes -24.8776
lfemur -42.6356 9.54323 -6.94425
ltibia 42.8308
lfoot -15.5842 -1.95093
ltoes -5.22973
